<svg xmlns="http://www.w3.org/2000/svg" xmlns:xlink="http://www.w3.org/1999/xlink" width="27" height="27" viewBox="0 0 27 27">
  <defs>
    <clipPath id="clip-path">
      <rect id="Rectangle_43" data-name="Rectangle 43" width="27" height="27" transform="translate(528 213)" fill="#fff" stroke="#707070" stroke-width="1"/>
    </clipPath>
  </defs>
  <g id="Mask_Group_10" data-name="Mask Group 10" transform="translate(-528 -213)" clip-path="url(#clip-path)">
    <path id="edit-file-1214232" d="M27.958,22.558l-3.267-3.267a1.35,1.35,0,0,0-1.917,0l-4.833,4.833a1.35,1.35,0,0,0-.392.958V28.35A1.35,1.35,0,0,0,18.9,29.7h3.267a1.35,1.35,0,0,0,.958-.392l4.833-4.833a1.35,1.35,0,0,0,0-1.917ZM21.6,27H20.25V25.65l3.483-3.483,1.35,1.35Zm-8.1,0H8.1a1.35,1.35,0,0,1-1.35-1.35V6.75A1.35,1.35,0,0,1,8.1,5.4h6.75V9.45A4.05,4.05,0,0,0,18.9,13.5h4.05v1.35a1.35,1.35,0,0,0,2.7,0V12.069a1.769,1.769,0,0,0-.081-.364v-.122a1.445,1.445,0,0,0-.257-.378h0l-8.1-8.1h0a1.444,1.444,0,0,0-.378-.256.432.432,0,0,0-.122,0L16.281,2.7H8.1A4.05,4.05,0,0,0,4.05,6.75v18.9A4.05,4.05,0,0,0,8.1,29.7h5.4a1.35,1.35,0,1,0,0-2.7ZM17.55,7.3l3.5,3.5H18.9a1.35,1.35,0,0,1-1.35-1.35ZM10.8,18.9h8.1a1.35,1.35,0,0,0,0-2.7H10.8a1.35,1.35,0,0,0,0,2.7Zm0-5.4h1.35a1.35,1.35,0,1,0,0-2.7H10.8a1.35,1.35,0,0,0,0,2.7Zm2.7,8.1H10.8a1.35,1.35,0,0,0,0,2.7h2.7a1.35,1.35,0,1,0,0-2.7Z" transform="translate(525.296 210.3)" fill="#292929"/>
  </g>
</svg>
